<svg width="60" height="60" viewBox="0 0 60 60" fill="none" xmlns="http://www.w3.org/2000/svg">
<rect opacity="0.2" width="60" height="60" rx="30" fill="#A6EAE8"/>
<path d="M34.1693 18.0004C37.5703 18.0004 39.4904 19.9295 39.5004 23.3305V32.6703C39.5004 36.0703 37.5703 38.0004 34.1693 38.0004H24.8304C21.4294 38.0004 19.5004 36.0703 19.5004 32.6703V23.3305C19.5004 19.9295 21.4294 18.0004 24.8304 18.0004H34.1693ZM25.3304 25.4106C25.0605 25.2406 24.7196 25.2406 24.4506 25.4106C24.1796 25.5806 24.0299 25.8896 24.0599 26.2006V33.1107C24.0991 33.5405 24.4593 33.8606 24.889 33.8607C25.3199 33.8607 25.6789 33.5406 25.7191 33.1107V26.2006C25.7501 25.8896 25.5994 25.5806 25.3304 25.4106ZM30.0004 22.1303C29.7195 21.9604 29.3797 21.9605 29.1107 22.1303C28.8397 22.2993 28.6902 22.6104 28.7191 22.9203V33.1107C28.7702 33.5405 29.1294 33.8607 29.5492 33.8607C29.9801 33.8607 30.3391 33.5406 30.3793 33.1107V22.9203C30.4192 22.6103 30.2703 22.2993 30.0004 22.1303ZM34.5892 29.0404C34.3203 28.8705 33.9805 28.8705 33.7006 29.0404C33.4296 29.2104 33.2807 29.5095 33.3207 29.8305V33.1107C33.3609 33.5406 33.7199 33.8607 34.1508 33.8607C34.5705 33.8605 34.9297 33.5405 34.9808 33.1107V29.8305C35.0098 29.5095 34.8602 29.2104 34.5892 29.0404Z" fill="#A6EAE8"/>
</svg>
