<svg width="61" height="60" viewBox="0 0 61 60" fill="none" xmlns="http://www.w3.org/2000/svg">
<rect opacity="0.2" x="0.5" width="60" height="60" rx="30" fill="#A6EAE8"/>
<rect width="24" height="24" transform="translate(18.5 17)" fill="#A6EAE8"/>
<path d="M29.7301 23.7905V19.7815C29.7301 19.3552 30.0701 19 30.5001 19C30.8851 19 31.2113 19.2985 31.263 19.6766L31.2701 19.7815V23.7905L36.05 23.7908C38.43 23.7908 40.3853 25.7398 40.4951 28.1704L40.5 28.3861V33.4254C40.5 35.873 38.6127 37.8822 36.268 37.995L36.06 38H24.94C22.56 38 20.6141 36.0608 20.5048 33.6213L20.5 33.4047L20.5 28.3758C20.5 25.9281 22.3779 23.9092 24.722 23.7958L24.93 23.7908L29.7301 23.7905L29.73 30.1932L28.13 28.541C27.83 28.2312 27.34 28.2312 27.04 28.541C26.89 28.6959 26.82 28.9024 26.82 29.1089C26.82 29.2659 26.8648 29.4295 26.9595 29.5679L27.04 29.6666L29.95 32.6819C30.09 32.8368 30.29 32.9194 30.5 32.9194C30.6667 32.9194 30.8333 32.862 30.9653 32.7533L31.04 32.6819L33.95 29.6666C34.25 29.3568 34.25 28.8508 33.95 28.541C33.6773 28.2594 33.2475 28.2338 32.9462 28.4642L32.86 28.541L31.27 30.1932L31.2701 23.7905H29.7301Z" fill="white"/>
</svg>
